<svg width="29" height="28" viewBox="0 0 29 28" fill="none" xmlns="http://www.w3.org/2000/svg">
<circle cx="14.5" cy="14.0093" r="13.5" stroke="#FFFFFC"/>
<path d="M20.8027 8.32031C19.6433 7.79743 18.4005 7.41096 17.1009 7.1912C17.0893 7.18898 17.0773 7.19041 17.0666 7.1953C17.0559 7.20019 17.0469 7.20829 17.041 7.21848C16.8819 7.49811 16.7045 7.8626 16.5803 8.15057C15.2019 7.94463 13.8006 7.94463 12.4223 8.15057C12.2838 7.83143 12.1277 7.52025 11.9547 7.21848C11.9488 7.20816 11.94 7.19988 11.9293 7.19473C11.9186 7.18959 11.9066 7.18783 11.8948 7.18968C10.596 7.40944 9.3532 7.79592 8.19302 8.31955C8.18304 8.32374 8.17457 8.33088 8.16877 8.34001C5.81052 11.8069 5.16412 15.1882 5.48164 18.527C5.48252 18.5352 5.48506 18.5431 5.4891 18.5503C5.49313 18.5574 5.49859 18.5637 5.50513 18.5687C6.88158 19.5708 8.41682 20.3342 10.0466 20.8269C10.0579 20.8304 10.0701 20.8304 10.0814 20.8269C10.0928 20.8234 10.1028 20.8165 10.1102 20.8072C10.4603 20.3374 10.7725 19.841 11.0393 19.3197C11.0552 19.2894 11.04 19.253 11.0082 19.2409C10.5187 19.0565 10.0444 18.834 9.58963 18.5755C9.58146 18.5709 9.57457 18.5642 9.56959 18.5563C9.56461 18.5483 9.56169 18.5392 9.56109 18.5298C9.56048 18.5204 9.56222 18.511 9.56615 18.5025C9.57007 18.4939 9.57606 18.4865 9.58357 18.4808C9.67905 18.4103 9.77453 18.3368 9.86547 18.2633C9.87365 18.2567 9.88351 18.2525 9.89395 18.2512C9.90438 18.2498 9.91499 18.2514 9.92457 18.2557C12.9004 19.5925 16.1233 19.5925 19.0643 18.2557C19.0739 18.2511 19.0846 18.2493 19.0952 18.2506C19.1058 18.2518 19.1158 18.2559 19.1242 18.2625C19.2151 18.3368 19.3098 18.4103 19.4061 18.4808C19.4137 18.4863 19.4197 18.4937 19.4238 18.5022C19.4278 18.5106 19.4297 18.52 19.4293 18.5294C19.4288 18.5388 19.4261 18.5479 19.4212 18.5559C19.4164 18.564 19.4096 18.5707 19.4015 18.5755C18.9484 18.8362 18.477 19.0567 17.9822 19.2401C17.9746 19.2429 17.9677 19.2472 17.9619 19.2529C17.9561 19.2585 17.9516 19.2653 17.9486 19.2729C17.9457 19.2804 17.9444 19.2885 17.9448 19.2965C17.9452 19.3046 17.9474 19.3125 17.9511 19.3197C18.2239 19.8403 18.5361 20.3359 18.8794 20.8065C18.8865 20.8161 18.8965 20.8233 18.9079 20.8271C18.9193 20.8309 18.9316 20.8311 18.9431 20.8277C20.5756 20.3364 22.1134 19.5726 23.4913 18.5687C23.4981 18.564 23.5037 18.5579 23.5079 18.5509C23.5121 18.5438 23.5147 18.5359 23.5156 18.5278C23.8945 14.6676 22.8806 11.3136 20.8262 8.34153C20.8211 8.33187 20.8128 8.32434 20.8027 8.32031ZM11.4841 16.4939C10.5884 16.4939 9.84955 15.6838 9.84955 14.6903C9.84955 13.6961 10.574 12.8868 11.4841 12.8868C12.401 12.8868 13.1331 13.7029 13.1187 14.6903C13.1187 15.6845 12.3942 16.4939 11.4841 16.4939ZM17.5275 16.4939C16.631 16.4939 15.8929 15.6838 15.8929 14.6903C15.8929 13.6961 16.6166 12.8868 17.5275 12.8868C18.4444 12.8868 19.1765 13.7029 19.1621 14.6903C19.1621 15.6845 18.4452 16.4939 17.5275 16.4939Z" fill="white"/>
</svg>
