<svg width="14" height="12" viewBox="0 0 14 12" fill="none" xmlns="http://www.w3.org/2000/svg">
<path d="M7.41738 11.2012C7.47444 11.1646 8.81768 10.2998 10.177 9.04584C10.9964 8.28935 11.6563 7.54311 12.1363 6.82759C12.4392 6.37546 12.6777 5.92771 12.8415 5.49606C13.0391 4.97954 13.1386 4.47181 13.1386 3.98455C13.14 3.46804 13.0361 2.96615 12.8328 2.49353C12.6366 2.0394 12.3538 1.62787 12.0002 1.28198L7.41738 11.2012ZM7.41738 11.2012L7.07059 11.4236L7.41738 11.2012ZM12.3736 2.69135C12.2032 2.29707 11.9576 1.93976 11.6506 1.63943L11.6502 1.63904C11.342 1.33696 10.9787 1.0969 10.5799 0.93191L10.5793 0.931642C10.1656 0.759792 9.72186 0.671829 9.27389 0.672861L9.27274 0.672863C8.64283 0.672862 8.02917 0.845302 7.49633 1.17036L7.49632 1.17037C7.36883 1.24814 7.24808 1.33333 7.13389 1.42595L6.81892 1.68142L6.50395 1.42595C6.38976 1.33333 6.26901 1.24814 6.14152 1.17037L6.14151 1.17036C5.60866 0.845302 4.99501 0.672862 4.3651 0.672862C3.91061 0.672862 3.47251 0.759695 3.05856 0.931644L3.05802 0.931869C2.65772 1.0976 2.29745 1.33563 1.98751 1.63919L1.98683 1.63986L1.98683 1.63986C1.67956 1.93967 1.43409 2.29685 1.26436 2.69118L12.3736 2.69135ZM12.3736 2.69135C12.5501 3.10167 12.6398 3.53579 12.6386 3.98314V3.98455C12.6386 4.40335 12.5531 4.85061 12.3745 5.31746L12.3741 5.31859C12.2262 5.70812 12.007 6.12218 11.7209 6.54931C11.2682 7.22416 10.6366 7.94105 9.83784 8.67846C8.50986 9.90349 7.19471 10.75 7.14755 10.7802L7.14745 10.7803L6.81819 10.9915L6.48893 10.7803L6.48898 10.7802L6.48117 10.7754C6.48136 10.7755 6.48118 10.7754 6.48059 10.775C6.47888 10.774 6.47376 10.7707 6.46434 10.7646C6.45242 10.757 6.43565 10.7461 6.41433 10.7321C6.37171 10.704 6.31147 10.6639 6.23608 10.6126C6.08527 10.5099 5.87446 10.3627 5.62341 10.1779C5.12055 9.80772 4.4602 9.28951 3.79859 8.67851L3.79853 8.67846C2.99978 7.94105 2.36821 7.22416 1.91551 6.54931C1.63002 6.12315 1.41172 5.70864 1.26185 5.31746L12.3736 2.69135ZM0.997803 3.98455C0.997803 3.5362 1.08776 3.10156 1.26434 2.69121L1.26175 5.31721C1.08328 4.85045 0.997803 4.40327 0.997803 3.98455Z" stroke="#00A2FF"/>
</svg>
