<svg width="29" height="28" viewBox="0 0 29 28" fill="none" xmlns="http://www.w3.org/2000/svg">
<circle cx="14.5" cy="14.0093" r="13.5" stroke="#FFFFFC"/>
<g clip-path="url(#clip0_11_545)">
<path d="M22.3684 10.7762C22.3595 10.1135 22.2355 9.45735 22.0017 8.83718C21.799 8.31406 21.4895 7.83897 21.0928 7.44228C20.6961 7.04558 20.221 6.736 19.6979 6.5333C19.0857 6.30349 18.4389 6.17922 17.7851 6.1658C16.9434 6.12818 16.6765 6.11768 14.5397 6.11768C12.403 6.11768 12.1291 6.11768 11.2935 6.1658C10.64 6.17932 9.99354 6.30359 9.38161 6.5333C8.85841 6.73585 8.38325 7.04539 7.98654 7.4421C7.58982 7.83882 7.28029 8.31398 7.07773 8.83718C6.84746 9.44892 6.72347 10.0955 6.71111 10.7491C6.67348 11.5917 6.66211 11.8586 6.66211 13.9953C6.66211 16.1321 6.66211 16.4051 6.71111 17.2416C6.72423 17.8961 6.84761 18.5418 7.07773 19.1552C7.28063 19.6782 7.59039 20.1532 7.98724 20.5497C8.38409 20.9463 8.85929 21.2557 9.38248 21.4582C9.99274 21.6972 10.6393 21.8304 11.2944 21.8519C12.137 21.8895 12.4039 21.9009 14.5406 21.9009C16.6774 21.9009 16.9512 21.9009 17.7869 21.8519C18.4406 21.8391 19.0874 21.7151 19.6996 21.4853C20.2226 21.2824 20.6976 20.9727 21.0942 20.576C21.4909 20.1794 21.8006 19.7044 22.0035 19.1814C22.2336 18.5689 22.357 17.9232 22.3701 17.2678C22.4077 16.4261 22.4191 16.1592 22.4191 14.0216C22.4174 11.8848 22.4174 11.6136 22.3684 10.7762ZM14.5345 18.036C12.2997 18.036 10.4894 16.2257 10.4894 13.9909C10.4894 11.7562 12.2997 9.9458 14.5345 9.9458C15.6073 9.9458 16.6362 10.372 17.3948 11.1306C18.1534 11.8892 18.5796 12.9181 18.5796 13.9909C18.5796 15.0638 18.1534 16.0927 17.3948 16.8513C16.6362 17.6099 15.6073 18.036 14.5345 18.036ZM18.7406 10.7394C18.6167 10.7395 18.494 10.7152 18.3795 10.6679C18.265 10.6205 18.161 10.551 18.0734 10.4634C17.9858 10.3758 17.9163 10.2718 17.8689 10.1573C17.8216 10.0428 17.7972 9.92008 17.7974 9.79618C17.7974 9.67236 17.8217 9.54976 17.8691 9.43538C17.9165 9.32099 17.986 9.21705 18.0735 9.12951C18.1611 9.04196 18.265 8.97251 18.3794 8.92513C18.4938 8.87775 18.6164 8.85336 18.7402 8.85336C18.864 8.85336 18.9866 8.87775 19.101 8.92513C19.2154 8.97251 19.3193 9.04196 19.4068 9.12951C19.4944 9.21705 19.5638 9.32099 19.6112 9.43538C19.6586 9.54976 19.683 9.67236 19.683 9.79618C19.683 10.3177 19.2612 10.7394 18.7406 10.7394Z" fill="white"/>
<path d="M14.5344 16.6185C15.9856 16.6185 17.162 15.4421 17.162 13.9909C17.162 12.5397 15.9856 11.3633 14.5344 11.3633C13.0832 11.3633 11.9067 12.5397 11.9067 13.9909C11.9067 15.4421 13.0832 16.6185 14.5344 16.6185Z" fill="white"/>
</g>
<defs>
<clipPath id="clip0_11_545">
<rect width="16" height="17" fill="white" transform="translate(6.5 5.50928)"/>
</clipPath>
</defs>
</svg>
