<svg width="29" height="28" viewBox="0 0 29 28" fill="none" xmlns="http://www.w3.org/2000/svg">
<circle cx="14.5" cy="14.0093" r="13.5" stroke="#FFFFFC"/>
<path d="M22.7475 9.00648C22.156 9.26856 21.5206 9.44564 20.8527 9.52568C21.5419 9.11329 22.0575 8.46422 22.3034 7.6996C21.6558 8.08422 20.9471 8.35495 20.2081 8.50002C19.7111 7.96938 19.0529 7.61766 18.3355 7.49948C17.6181 7.38129 16.8818 7.50324 16.2409 7.8464C15.6 8.18956 15.0902 8.73473 14.7909 9.39727C14.4915 10.0598 14.4193 10.8026 14.5854 11.5104C13.2733 11.4446 11.9898 11.1035 10.818 10.5095C9.6463 9.91545 8.61258 9.08167 7.78394 8.06227C7.5006 8.55102 7.33769 9.11768 7.33769 9.72118C7.33737 10.2645 7.47116 10.7994 7.72719 11.2786C7.98321 11.7578 8.35355 12.1664 8.80535 12.4681C8.28138 12.4514 7.76897 12.3098 7.31077 12.0551V12.0976C7.31072 12.8596 7.57429 13.5982 8.05678 14.1879C8.53926 14.7777 9.21093 15.1824 9.95781 15.3333C9.47174 15.4649 8.96214 15.4842 8.46748 15.39C8.67821 16.0456 9.08868 16.619 9.64145 17.0297C10.1942 17.4405 10.8616 17.6681 11.5501 17.6807C10.3813 18.5983 8.93773 19.096 7.45173 19.0939C7.1885 19.0939 6.92549 19.0785 6.66406 19.0478C8.17244 20.0176 9.9283 20.5323 11.7216 20.5303C17.792 20.5303 21.1105 15.5026 21.1105 11.1421C21.1105 11.0004 21.107 10.8574 21.1006 10.7157C21.7461 10.2489 22.3033 9.67082 22.7461 9.0086L22.7475 9.00648Z" fill="white"/>
</svg>
